<svg xmlns="http://www.w3.org/2000/svg" viewBox="-115 -543 32 32">
  <defs>
    <style>
      .cls-1 {
        fill: #f9fafc;
      }
    </style>
  </defs>
  <g id="Icon_Report_Problem" data-name="Icon_Report Problem" transform="translate(-441 -1250)">
    <path id="Subtraction_1" data-name="Subtraction 1" class="cls-1" d="M458,1289a16,16,0,1,1,16-16A16.018,16.018,0,0,1,458,1289Zm-.844-10.594a3.5,3.5,0,0,0-2.461.781,2.9,2.9,0,0,0-.836,2.219,2.807,2.807,0,0,0,.875,2.21,3.549,3.549,0,0,0,2.422.774,3.427,3.427,0,0,0,2.368-.781,2.827,2.827,0,0,0,.867-2.2,2.906,2.906,0,0,0-.836-2.211A3.379,3.379,0,0,0,457.156,1278.406Zm.454-12.781a2.83,2.83,0,0,1,1.547.383,1.187,1.187,0,0,1,.593,1.039,2.19,2.19,0,0,1-.554,1.469,8.371,8.371,0,0,1-1.821,1.437,6.594,6.594,0,0,0-2.219,2.055,5.013,5.013,0,0,0-.625,2.586v1.344h4.8v-.8a1.76,1.76,0,0,1,.414-1.165,10.946,10.946,0,0,1,2.055-1.554,9.035,9.035,0,0,0,2.82-2.617,5.977,5.977,0,0,0,.883-3.273,5.009,5.009,0,0,0-1.984-4.172,8.792,8.792,0,0,0-5.468-1.531,16.253,16.253,0,0,0-8.125,2.219l2.172,4.251A12.22,12.22,0,0,1,457.609,1265.625Z" transform="translate(-116 -550)"/>
  </g>
</svg>
