<svg xmlns="http://www.w3.org/2000/svg" viewBox="0 0 72 72"><defs><style>.cls-1,.cls-2{fill:#f9fafc;}.cls-2{font-size:12px;font-family:Phosphate-Inline, Phosphate;}</style></defs><title>Logo with text</title><g id="Layer_2" data-name="Layer 2"><g id="Layer_2-2" data-name="Layer 2"><path class="cls-1" d="M53.2,20.68c-4.1-4.06-4.1-4.06-6.64-1.5l-7.27,7.31c-.51.51-.51.51,0,1L41.85,30l-.51.51.51.51L36.55,36.4l-5.36-5.3.51-.51-.51-.51,2.54-2.56c.51-.51.51-.51,0-1L26.4,19.25c-2.56-2.54-2.56-2.54-6.63,1.55s-4.07,4.09-1.5,6.63l7.33,7.25c.51.51.51.51,1,0l2.54-2.56.51.51.51-.51,5.36,5.3-3.84,3.86-.51-.51-.51.51a5.21,5.21,0,0,1-2.42,1.38l-2.68.68-.51-.51-.12.12a1.27,1.27,0,0,0,0,1.8L29.29,49a1.28,1.28,0,0,0,1.8,0l.12-.12-.51-.51.66-2.68a5.19,5.19,0,0,1,1.36-2.42l.51-.51-.51-.51,3.84-3.86,3.87,3.83-.51.51.51.51a5.2,5.2,0,0,1,1.38,2.41l.68,2.67-.51.51.12.12a1.28,1.28,0,0,0,1.8,0l4.3-4.33a1.27,1.27,0,0,0,0-1.8l-.12-.12-.51.51-2.69-.66a5.22,5.22,0,0,1-2.43-1.36l-.51-.51-.51.51-3.87-3.83,5.31-5.34.51.51.51-.51,2.56,2.54c.51.51.51.51,1,0l7.27-7.31C57.3,24.74,57.3,24.74,53.2,20.68Zm-23.54,8.9L27.09,27a.71.71,0,0,0-1,0l0,0,3.57,3.53-.51.51-.51.51-2,2a.72.72,0,0,1-1,0l-6.3-6.24c-2.56-2.54-2.56-2.54.49-5.6l.51.51c-2.54,2.56-2.54,2.56-.49,4.58l5.79,5.73a.72.72,0,0,0,1,0l1.52-1.53a.72.72,0,0,0,0-1l-2-2c-.51-.51-.51-.51,0-1l-3.74-3.7c-2-2-2.08-2.06,0-4.07,1.43-1.39,1.52-1.53,3.57.5l6.81,6.75c.51.51.51.51,0,1l-2,2C30.18,30.07,30.17,30.08,29.65,29.58Zm1.37,15-.44,1.77a.94.94,0,0,1-1.58.44L27.27,45a.94.94,0,0,1,.43-1.58L29.47,43A1.27,1.27,0,0,1,31,44.53Zm11.45-1.25a1.28,1.28,0,0,1,1.21-.34l1.77.43a.94.94,0,0,1,.44,1.57l-1.72,1.73a.94.94,0,0,1-1.58-.43l-.45-1.76A1.27,1.27,0,0,1,42.47,43.28Zm11.26-16-6.25,6.29a.72.72,0,0,1-1,0l-2-2-.51-.51-.51-.51L46.93,27l0,0a.71.71,0,0,0-1,0l-2.54,2.56c-.51.51-.52.5-1,0l-2-2c-.51-.51-.51-.51,0-1l6.76-6.8c2-2,2-2,3.57-.52,2,2,2,2,0,4.07L46.95,27c.51.51.51.51,0,1l-2,2a.72.72,0,0,0,0,1l1.54,1.52a.72.72,0,0,0,1,0l5.74-5.78c2-2,2-2-.53-4.58l.51-.51C56.27,24.74,56.27,24.74,53.73,27.3Z"/><path class="cls-1" d="M16,51.5l.33,0L1.41,36.61l35.2-35.2,34,34L54.48,51.5h1.41L72,35.39,36.61,0,0,36.61,14.89,51.5Z"/><polygon class="cls-1" points="45.7 60.5 45.7 60.27 35.39 70.59 25.3 60.5 24.37 60.5 24.37 59.56 23.47 58.67 23.47 60.08 35.39 72 46.89 60.5 45.7 60.5"/><polygon class="cls-1" points="53.56 53.52 53.56 52.41 53.1 52.88 53.56 53.52"/><text class="cls-2" transform="translate(12.83 60)">Pitch in</text></g></g></svg>