<svg xmlns="http://www.w3.org/2000/svg" viewBox="0 0 72 72"><defs><style>.cls-1{fill:#f9fafc;}</style></defs><title>Logo with text_1</title><g id="Layer_2" data-name="Layer 2"><g id="Layer_2-2" data-name="Layer 2"><path class="cls-1" d="M53.2,20.68c-4.1-4.06-4.1-4.06-6.64-1.5l-7.27,7.31c-.51.51-.51.51,0,1L41.85,30l-.51.51.51.51L36.55,36.4l-5.36-5.3.51-.51-.51-.51,2.54-2.56c.51-.51.51-.51,0-1L26.4,19.25c-2.56-2.54-2.56-2.54-6.63,1.55s-4.07,4.09-1.5,6.63l7.33,7.25c.51.51.51.51,1,0l2.54-2.56.51.51.51-.51,5.36,5.3-3.84,3.86-.51-.51-.51.51a5.21,5.21,0,0,1-2.42,1.38l-2.68.68-.51-.51-.12.12a1.27,1.27,0,0,0,0,1.8L29.29,49a1.28,1.28,0,0,0,1.8,0l.12-.12-.51-.51.66-2.68a5.19,5.19,0,0,1,1.36-2.42l.51-.51-.51-.51,3.84-3.86,3.87,3.83-.51.51.51.51a5.2,5.2,0,0,1,1.38,2.41l.68,2.67-.51.51.12.12a1.28,1.28,0,0,0,1.8,0l4.3-4.33a1.27,1.27,0,0,0,0-1.8l-.12-.12-.51.51-2.69-.66a5.22,5.22,0,0,1-2.43-1.36l-.51-.51-.51.51-3.87-3.83,5.31-5.34.51.51.51-.51,2.56,2.54c.51.51.51.51,1,0l7.27-7.31C57.3,24.74,57.3,24.74,53.2,20.68Zm-23.54,8.9L27.09,27a.71.71,0,0,0-1,0l0,0,3.57,3.53-.51.51-.51.51-2,2a.72.72,0,0,1-1,0l-6.3-6.24c-2.56-2.54-2.56-2.54.49-5.6l.51.51c-2.54,2.56-2.54,2.56-.49,4.58l5.79,5.73a.72.72,0,0,0,1,0l1.52-1.53a.72.72,0,0,0,0-1l-2-2c-.51-.51-.51-.51,0-1l-3.74-3.7c-2-2-2.08-2.06,0-4.07,1.43-1.39,1.52-1.53,3.57.5l6.81,6.75c.51.51.51.51,0,1l-2,2C30.18,30.07,30.17,30.08,29.65,29.58Zm1.37,15-.44,1.77a.94.94,0,0,1-1.58.44L27.27,45a.94.94,0,0,1,.43-1.58L29.47,43A1.27,1.27,0,0,1,31,44.53Zm11.45-1.25a1.28,1.28,0,0,1,1.21-.34l1.77.43a.94.94,0,0,1,.44,1.57l-1.72,1.73a.94.94,0,0,1-1.58-.43l-.45-1.76A1.27,1.27,0,0,1,42.47,43.28Zm11.26-16-6.25,6.29a.72.72,0,0,1-1,0l-2-2-.51-.51-.51-.51L46.93,27l0,0a.71.71,0,0,0-1,0l-2.54,2.56c-.51.51-.52.5-1,0l-2-2c-.51-.51-.51-.51,0-1l6.76-6.8c2-2,2-2,3.57-.52,2,2,2,2,0,4.07L46.95,27c.51.51.51.51,0,1l-2,2a.72.72,0,0,0,0,1l1.54,1.52a.72.72,0,0,0,1,0l5.74-5.78c2-2,2-2-.53-4.58l.51-.51C56.27,24.74,56.27,24.74,53.73,27.3Z"/><path class="cls-1" d="M16,51.5l.33,0L1.41,36.61l35.2-35.2,34,34L54.48,51.5h1.41L72,35.39,36.61,0,0,36.61,14.89,51.5Z"/><polygon class="cls-1" points="45.7 60.5 45.7 60.27 35.39 70.59 25.3 60.5 24.37 60.5 24.37 59.56 23.47 58.67 23.47 60.08 35.39 72 46.89 60.5 45.7 60.5"/><polygon class="cls-1" points="53.56 53.52 53.56 52.41 53.1 52.88 53.56 53.52"/><path class="cls-1" d="M19.48,55a3.16,3.16,0,0,1-.29,1.41,2.53,2.53,0,0,1-.79.94,3.38,3.38,0,0,1-1.16.53,5.84,5.84,0,0,1-1.43.17V60H13.25V52h2.56a5.84,5.84,0,0,1,1.43.17,3.38,3.38,0,0,1,1.16.53,2.51,2.51,0,0,1,.79.94A3.16,3.16,0,0,1,19.48,55Zm-1.16,0a2.18,2.18,0,0,0-.19-.94,1.69,1.69,0,0,0-.52-.65,2.35,2.35,0,0,0-.8-.38,3.8,3.8,0,0,0-1-.13H14.45V59h.31V57.13h1a3.8,3.8,0,0,0,1-.13,2.35,2.35,0,0,0,.8-.38,1.7,1.7,0,0,0,.52-.65A2.19,2.19,0,0,0,18.31,55ZM18,55a1.87,1.87,0,0,1-.18.86,1.46,1.46,0,0,1-.48.55,2,2,0,0,1-.69.29,3.61,3.61,0,0,1-.82.09h-1v-3.6h1a3.67,3.67,0,0,1,.82.09,2,2,0,0,1,.69.29,1.46,1.46,0,0,1,.48.55A1.87,1.87,0,0,1,18,55Zm-2.17.89h.11a1,1,0,0,0,.73-.23,1.07,1.07,0,0,0,0-1.31,1,1,0,0,0-.73-.23h-.11Z"/><path class="cls-1" d="M20.08,52h2.71v8H20.08Zm1.51,7V53h-.31V59Z"/><path class="cls-1" d="M24.69,54.1H23.21V52H28.8v2.1H27.33V60H24.69ZM26.16,59v-5.8h1.72V53H24.13v.29h1.72V59Z"/><path class="cls-1" d="M29,56a4.31,4.31,0,0,1,.34-1.73,4,4,0,0,1,.91-1.33,4,4,0,0,1,1.34-.85,4.54,4.54,0,0,1,1.63-.29,5.1,5.1,0,0,1,1.22.13,5.82,5.82,0,0,1,.92.3,4.29,4.29,0,0,1,.77.42l-1.26,2.22a4.47,4.47,0,0,0-.42-.28,4.09,4.09,0,0,0-.49-.19,2.09,2.09,0,0,0-.64-.09,1.73,1.73,0,0,0-1.23.49,1.64,1.64,0,0,0-.5,1.19,1.57,1.57,0,0,0,.14.65,1.68,1.68,0,0,0,.38.53,1.79,1.79,0,0,0,.56.36,1.86,1.86,0,0,0,.71.13,2.23,2.23,0,0,0,.68-.1,2.48,2.48,0,0,0,.5-.22,1.86,1.86,0,0,0,.42-.31l1.26,2.22a3.56,3.56,0,0,1-.77.47,6.48,6.48,0,0,1-.92.31,5.16,5.16,0,0,1-3-.16A4.08,4.08,0,0,1,30.27,59a3.89,3.89,0,0,1-.9-1.33A4.39,4.39,0,0,1,29,56Zm1.51,0a2.92,2.92,0,0,1,.2-1.08,2.63,2.63,0,0,1,.56-.88,2.59,2.59,0,0,1,.88-.59,3,3,0,0,1,1.15-.22,3.31,3.31,0,0,1,.56,0,2.53,2.53,0,0,1,.41.1,1.59,1.59,0,0,1,.35.14l.17-.29-.41-.16L33.95,53a3.42,3.42,0,0,0-.61,0,3.2,3.2,0,0,0-1.17.22,3,3,0,0,0-1,.62A3,3,0,0,0,30.24,56a3.15,3.15,0,0,0,.25,1.27,2.88,2.88,0,0,0,.68,1,3,3,0,0,0,1,.62,3.47,3.47,0,0,0,1.22.22A3.19,3.19,0,0,0,34,59a3.89,3.89,0,0,0,.49-.13,2.45,2.45,0,0,0,.41-.19l-.17-.29a1.54,1.54,0,0,1-.36.18,2.73,2.73,0,0,1-.43.13,2.83,2.83,0,0,1-.59.05,3.1,3.1,0,0,1-1.19-.22,2.62,2.62,0,0,1-.89-.59,2.57,2.57,0,0,1-.56-.88A2.92,2.92,0,0,1,30.55,56Z"/><path class="cls-1" d="M36.59,52h2.56v2.72h1.43V52h2.57v8H40.57V57H39.15v3H36.59Zm1.51,7V56h3.53v3h.31V53h-.31v2.76H38.1V53h-.31V59Z"/><path class="cls-1" d="M46.38,52h2.71v8H46.38Zm1.51,7V53h-.31V59Z"/><path class="cls-1" d="M49.93,52H52l2.21,3.08V52h2.51v8H54.64l-2.2-3.07V60H49.93Zm1.43,7V53.5l4,5.54h.31V53h-.31V58.5l-4-5.54H51V59Z"/></g></g></svg>