<svg xmlns="http://www.w3.org/2000/svg" viewBox="0 0 72 72"><defs><style>.cls-1{fill:#f9fafc;}</style></defs><title>Logo no text</title><g id="Layer_2" data-name="Layer 2"><g id="Layer_1-2" data-name="Layer 1"><path class="cls-1" d="M56,23.88c-4.92-5.07-4.92-5.07-8-1.88l-8.72,9.14c-.61.64-.61.64,0,1.27l3.07,3.17-.61.64.61.63-6.37,6.68L29.63,36.9l.61-.64-.61-.63,3-3.19c.61-.64.61-.64,0-1.27L23.88,22.1c-3.07-3.17-3.07-3.17-8,1.94s-4.88,5.11-1.8,8.28l8.79,9.07c.61.63.61.63,1.22,0l3-3.19.61.63.61-.64,6.43,6.63-4.6,4.82L29.62,49l-.61.64a6.2,6.2,0,0,1-2.9,1.72l-3.22.85-.61-.63-.14.15a1.63,1.63,0,0,0,0,2.25l5.21,5.37a1.49,1.49,0,0,0,2.16,0l.14-.15L29,58.55l.79-3.35a6.57,6.57,0,0,1,1.63-3l.61-.64-.61-.63,4.6-4.82,4.64,4.79-.61.64.61.63a6.57,6.57,0,0,1,1.66,3l.82,3.34-.61.64.14.15a1.49,1.49,0,0,0,2.16,0L50,53.86a1.63,1.63,0,0,0,0-2.25l-.14-.15-.61.64-3.22-.82a6.2,6.2,0,0,1-2.91-1.7l-.61-.63-.61.64L37.29,44.8l6.37-6.68.61.63.61-.64L48,41.29c.61.63.61.63,1.22,0l8.72-9.14C61,29,61,29,56,23.88ZM27.79,35l-3.07-3.17a.83.83,0,0,0-1.22,0l0,0,4.28,4.42-.61.64-.61.64-2.44,2.56a.84.84,0,0,1-1.22,0l-7.56-7.8c-3.07-3.17-3.07-3.17.58-7l.61.63c-3,3.19-3,3.19-.59,5.73l6.95,7.16a.84.84,0,0,0,1.22,0L26,36.92a.93.93,0,0,0,0-1.27l-2.46-2.54c-.61-.63-.61-.63,0-1.27L19,27.21c-2.46-2.54-2.46-2.54,0-5.09,1.83-1.92,1.83-1.92,4.29.62l8.18,8.43c.61.63.61.63,0,1.27L29,35C28.42,35.62,28.4,35.63,27.79,35Zm1.64,18.69L28.9,55.9a1.12,1.12,0,0,1-1.89.55L24.93,54.3a1.19,1.19,0,0,1,.52-2l2.12-.56a1.49,1.49,0,0,1,1.45.41A1.63,1.63,0,0,1,29.43,53.69Zm13.74-1.56a1.49,1.49,0,0,1,1.45-.42l2.13.54a1.19,1.19,0,0,1,.53,2L45.2,56.38a1.12,1.12,0,0,1-1.9-.54l-.54-2.2A1.63,1.63,0,0,1,43.16,52.13Zm13.52-20L49.18,40A.84.84,0,0,1,48,40l-2.46-2.54-.61-.63-.61-.63,4.25-4.45,0,0a.83.83,0,0,0-1.22,0l-3,3.19c-.61.64-.62.62-1.22,0L40.58,32.4c-.61-.63-.61-.63,0-1.27l8.11-8.5c2.44-2.56,2.44-2.56,4.28-.65,2.46,2.54,2.46,2.54,0,5.09l-4.45,4.66c.61.63.61.63,0,1.27L46.1,35.57a.93.93,0,0,0,0,1.27l1.84,1.9a.84.84,0,0,0,1.22,0l6.89-7.22C58.5,29,58.5,29,55.43,25.79l.61-.64C59.73,29,59.73,29,56.68,32.15Z"/><path class="cls-1" d="M36,1.41,70.59,36,36,70.59,1.41,36,36,1.41M36,0,0,36,36,72,72,36,36,0Z"/></g></g></svg>